<?xml version="1.0" encoding="utf-8"?>
<!-- Generator: Adobe Illustrator 22.0.1, SVG Export Plug-In . SVG Version: 6.00 Build 0)  -->
<svg version="1.1" id="Layer_1" xmlns="http://www.w3.org/2000/svg" xmlns:xlink="http://www.w3.org/1999/xlink" x="0px" y="0px"
	 viewBox="0 0 130 82" style="enable-background:new 0 0 130 82;" xml:space="preserve">
<style type="text/css">
	.st0{display:none;}
	.st1{display:inline;fill:#E73530;}
	.st2{display:inline;fill:#1D1E1E;}
	.st3{display:inline;}
	.st4{fill:#FFFFFF;}
	.st5{fill:#00A3DF;}
	.st6{fill:#EE4023;}
	.st7{fill:#FFCA05;}
	.st8{display:inline;fill:#3957A7;}
	.st9{fill:#F9A533;}
	.st10{fill:#13457C;}
	.st11{fill-rule:evenodd;clip-rule:evenodd;fill:#FBB231;}
	.st12{fill-rule:evenodd;clip-rule:evenodd;fill:#EC1C2E;}
	.st13{fill-rule:evenodd;clip-rule:evenodd;fill:#FFFFFF;}
	.st14{fill:none;stroke:#FFFFFF;stroke-width:0.216;stroke-miterlimit:2.6131;}
</style>
<g class="st0">
	<path class="st1" d="M65.3,51.2"/>
	<path class="st2" d="M127.5,75.8c0,2.3-1.9,4.2-4.2,4.2H6.7c-2.3,0-4.2-1.9-4.2-4.2V6.2C2.5,3.9,4.4,2,6.7,2h116.7
		c2.3,0,4.2,1.9,4.2,4.2V75.8z"/>
	<g class="st3">
		<path class="st4" d="M24.9,53.8c-0.4-0.6-0.9-1.6-1.2-2.3c-1.8-4.3-1.9-8.7-0.4-12.9c1.7-4.6,5-8.2,9.2-10
			c5.3-2.3,11.1-1.8,16.2,1.2c3.2,1.8,5.5,4.7,7.2,8.7c0.2,0.5,0.4,1.1,0.6,1.5L24.9,53.8z M35.4,35.4c-3.8,1.6-5.7,5.1-5.3,9.3
			L46,37.9C43.3,34.6,39.7,33.6,35.4,35.4z M48,50.3C48,50.3,48,50.3,48,50.3l-0.3-0.2c-0.9,1.5-2.4,2.8-4.3,3.6
			c-3.6,1.5-6.9,1.1-9.2-0.9L34,53.1c0,0,0,0,0,0l-4,6c1,0.7,2.1,1.3,3.2,1.8c4.5,1.9,9,1.8,13.5-0.2c3.3-1.4,5.8-3.6,7.5-6.3
			L48,50.3z"/>
		<path class="st4" d="M67.6,19.7v33.6l5.2,2.1l-3,6.9l-5.8-2.4c-1.3-0.6-2.2-1.4-2.8-2.4c-0.6-1-1.1-2.3-1.1-4.2V19.7H67.6z"/>
		<g>
			<path class="st5" d="M81.1,44.7c0-2.9,1.3-5.4,3.3-7.2l-5.4-6c-3.6,3.2-5.9,7.9-5.9,13.1c0,5.2,2.3,9.9,5.9,13.1l5.3-6
				C82.3,50.1,81.1,47.6,81.1,44.7z"/>
			<path class="st6" d="M90.6,54.2c-1.1,0-2.1-0.2-3-0.5L85,61.4c1.7,0.6,3.6,0.9,5.6,0.9c8.5,0,15.6-6,17.2-14l-7.9-1.6
				C99,51,95.2,54.2,90.6,54.2z"/>
			<path class="st7" d="M90.6,27.2c-1.9,0-3.8,0.3-5.6,0.9l2.5,7.6c1-0.3,2-0.5,3-0.5c4.6,0,8.5,3.3,9.3,7.6l7.9-1.6
				C106.2,33.2,99.1,27.2,90.6,27.2z"/>
		</g>
	</g>
</g>
<g class="st0">
	<path class="st8" d="M127.5,75.8c0,2.3-1.9,4.2-4.2,4.2H6.7c-2.3,0-4.2-1.9-4.2-4.2V6.2C2.5,3.9,4.4,2,6.7,2h116.7
		c2.3,0,4.2,1.9,4.2,4.2V75.8z"/>
	<g class="st3">
		<g>
			<polygon class="st4" points="60,52.8 53.9,52.8 57.7,29.2 63.8,29.2 			"/>
			<path class="st4" d="M48.7,29.2l-5.8,16.2l-0.7-3.5v0l-2.1-10.6c0,0-0.3-2.1-2.9-2.1h-9.7l-0.1,0.4c0,0,3,0.6,6.4,2.7l5.3,20.4
				h6.4l9.8-23.5H48.7z"/>
			<path class="st4" d="M96.9,52.8h5.6l-4.9-23.5h-4.9c-2.3,0-2.8,1.8-2.8,1.8l-9.1,21.8h6.4l1.3-3.5h7.8L96.9,52.8z M90.2,44.5
				l3.2-8.8l1.8,8.8H90.2z"/>
			<path class="st4" d="M81.2,34.9l0.9-5.1c0,0-2.7-1-5.5-1c-3,0-10.3,1.3-10.3,7.8c0,6.1,8.5,6.2,8.5,9.3c0,3.2-7.6,2.6-10.1,0.6
				l-0.9,5.3c0,0,2.7,1.3,6.9,1.3c4.2,0,10.5-2.2,10.5-8.1c0-6.1-8.6-6.7-8.6-9.3C72.6,33.1,78.6,33.5,81.2,34.9z"/>
		</g>
		<path class="st9" d="M42.2,41.9l-2.1-10.6c0,0-0.3-2.1-2.9-2.1h-9.7l-0.1,0.4c0,0,4.6,1,9.1,4.6C40.8,37.6,42.2,41.9,42.2,41.9z"
			/>
	</g>
</g>
<g>
	<path class="st10" d="M127.5,76c0,2.3-1.9,4.2-4.2,4.2H6.7c-2.3,0-4.2-1.9-4.2-4.2V6c0-2.3,1.9-4.2,4.2-4.2h116.7
		c2.3,0,4.2,1.9,4.2,4.2V76z"/>
	<g>
		<polygon class="st11" points="80.1,63.5 81.2,63.5 82.4,63.4 83.5,63.2 84.6,63 85.7,62.8 86.8,62.5 87.8,62.1 88.8,61.7 
			89.8,61.3 90.8,60.8 91.7,60.2 92.7,59.7 93.5,59 94.4,58.4 95.2,57.7 96,56.9 96.7,56.1 97.5,55.3 98.1,54.4 98.7,53.6 
			99.3,52.6 99.9,51.7 100.4,50.7 100.8,49.7 101.2,48.7 101.6,47.7 101.9,46.6 102.1,45.5 102.3,44.4 102.5,43.3 102.6,42.1 
			102.6,41 102.6,39.8 102.5,38.7 102.3,37.5 102.1,36.4 101.9,35.4 101.6,34.3 101.2,33.2 100.8,32.2 100.4,31.2 99.9,30.3 
			99.3,29.3 98.7,28.4 98.1,27.5 97.5,26.7 96.7,25.9 96,25.1 95.2,24.3 94.4,23.6 93.5,23 92.7,22.3 91.7,21.8 90.8,21.2 
			89.8,20.7 88.8,20.3 87.8,19.9 86.8,19.5 85.7,19.2 84.6,19 83.5,18.8 82.4,18.6 81.2,18.5 80.1,18.5 78.9,18.5 77.8,18.6 
			76.6,18.8 75.5,19 74.4,19.2 73.4,19.5 72.3,19.9 71.3,20.3 70.3,20.7 69.3,21.2 68.4,21.8 67.5,22.3 66.6,23 65.8,23.6 
			64.9,24.3 64.2,25.1 63.4,25.9 62.7,26.7 62,27.5 61.4,28.4 60.8,29.3 60.3,30.3 59.8,31.2 59.4,32.2 59,33.2 58.6,34.3 
			58.3,35.4 58,36.4 57.8,37.5 57.7,38.7 57.6,39.8 57.6,41 57.6,42.1 57.7,43.3 57.8,44.4 58,45.5 58.3,46.6 58.6,47.7 59,48.7 
			59.4,49.7 59.8,50.7 60.3,51.7 60.8,52.6 61.4,53.6 62,54.4 62.7,55.3 63.4,56.1 64.2,56.9 64.9,57.7 65.8,58.4 66.6,59 
			67.5,59.7 68.4,60.2 69.3,60.8 70.3,61.3 71.3,61.7 72.3,62.1 73.4,62.5 74.4,62.8 75.5,63 76.6,63.2 77.8,63.4 78.9,63.5 
			80.1,63.5 80.1,63.5 		"/>
		<polygon class="st12" points="49.9,63.5 51.1,63.5 52.2,63.4 53.4,63.2 54.5,63 55.6,62.8 56.6,62.5 57.7,62.1 58.7,61.7 
			59.7,61.3 60.7,60.8 61.6,60.2 62.5,59.7 63.4,59 64.2,58.4 65.1,57.7 65.8,56.9 66.6,56.1 67.3,55.3 68,54.4 68.6,53.6 
			69.2,52.6 69.7,51.7 70.2,50.7 70.6,49.7 71,48.7 71.4,47.7 71.7,46.6 72,45.5 72.1,44.4 72.3,43.3 72.4,42.1 72.4,41 72.4,39.8 
			72.3,38.7 72.1,37.5 72,36.4 71.7,35.4 71.4,34.3 71,33.2 70.6,32.2 70.2,31.2 69.7,30.3 69.2,29.3 68.6,28.4 68,27.5 67.3,26.7 
			66.6,25.9 65.8,25.1 65.1,24.3 64.2,23.6 63.4,23 62.5,22.3 61.6,21.8 60.7,21.2 59.7,20.7 58.7,20.3 57.7,19.9 56.6,19.5 
			55.6,19.2 54.5,19 53.4,18.8 52.2,18.6 51.1,18.5 49.9,18.5 48.8,18.5 47.6,18.6 46.5,18.8 45.4,19 44.3,19.2 43.2,19.5 
			42.2,19.9 41.2,20.3 40.2,20.7 39.2,21.2 38.3,21.8 37.3,22.3 36.5,23 35.6,23.6 34.8,24.3 34,25.1 33.3,25.9 32.5,26.7 
			31.9,27.5 31.3,28.4 30.7,29.3 30.1,30.3 29.6,31.2 29.2,32.2 28.8,33.2 28.4,34.3 28.1,35.4 27.9,36.4 27.7,37.5 27.5,38.7 
			27.4,39.8 27.4,41 27.4,42.1 27.5,43.3 27.7,44.4 27.9,45.5 28.1,46.6 28.4,47.7 28.8,48.7 29.2,49.7 29.6,50.7 30.1,51.7 
			30.7,52.6 31.3,53.6 31.9,54.4 32.5,55.3 33.3,56.1 34,56.9 34.8,57.7 35.6,58.4 36.5,59 37.3,59.7 38.3,60.2 39.2,60.8 
			40.2,61.3 41.2,61.7 42.2,62.1 43.2,62.5 44.3,62.8 45.4,63 46.5,63.2 47.6,63.4 48.8,63.5 49.9,63.5 49.9,63.5 		"/>
		<polygon class="st11" points="62.4,27.1 74.3,27.1 74.3,25.9 63.4,25.9 62.4,27.1 62.4,27.1 		"/>
		<polygon class="st11" points="60.6,29.8 74.3,29.8 74.3,28.6 61.3,28.6 60.6,29.8 60.6,29.8 		"/>
		<polygon class="st11" points="59.2,32.6 74.3,32.6 74.3,31.3 59.8,31.3 59.2,32.6 59.2,32.6 		"/>
		<polygon class="st11" points="58.3,35.3 74.3,35.3 74.3,34.1 58.7,34.1 58.3,35.3 58.3,35.3 		"/>
		<polygon class="st11" points="58.9,48.4 74.4,48.4 74.4,47.2 58.5,47.2 58.9,48.4 58.9,48.4 		"/>
		<polygon class="st11" points="60,51.1 74.4,51.1 74.4,49.9 59.4,49.9 60,51.1 60,51.1 		"/>
		<polygon class="st11" points="61.6,53.8 74.4,53.8 74.4,52.6 60.8,52.6 61.6,53.8 61.6,53.8 		"/>
		<polygon class="st11" points="63.8,56.6 74.4,56.6 74.4,55.3 62.8,55.3 63.8,56.6 63.8,56.6 		"/>
		<polygon class="st11" points="57.8,38 74.3,38 74.3,36.8 58,36.8 57.8,38 57.8,38 		"/>
		<polygon class="st11" points="67.9,45.7 74.2,45.7 74.2,44.5 68.1,44.5 67.9,45.7 67.9,45.7 		"/>
		<polygon class="st11" points="68.4,43 74.2,43 74.2,41.8 68.6,41.8 68.4,43 68.4,43 		"/>
		<polygon class="st11" points="57.4,41.8 59,41.8 59,43 57.4,43 57.4,41.8 57.4,41.8 		"/>
		<polygon class="st13" points="54.3,40.3 54.2,40.3 54.1,40.3 54,40.2 53.9,40.2 53.8,40.2 53.7,40.2 53.6,40.2 53.5,40.2 
			53.4,40.1 53.3,40.1 53.1,40.1 53,40.1 52.8,40.1 52.7,40.1 52.5,40.1 52.2,40.2 52.1,40.2 51.9,40.2 51.8,40.3 51.7,40.3 
			51.6,40.4 51.5,40.4 51.4,40.5 51.4,40.6 51.3,40.6 51.3,40.7 51.3,40.8 51.3,40.9 51.3,41 51.3,41.1 51.4,41.2 51.4,41.3 
			51.6,41.4 51.8,41.6 52,41.7 52.2,41.7 52.5,41.8 52.7,41.9 53,42 53.2,42.1 53.4,42.2 53.6,42.4 53.8,42.6 54,42.8 54.1,43.1 
			54.2,43.4 54.2,43.8 54.2,44.3 54.1,44.7 54,45 53.9,45.3 53.8,45.5 53.6,45.7 53.4,45.9 53.2,46.1 53,46.3 52.7,46.4 52.5,46.5 
			52.2,46.5 51.9,46.6 51.7,46.6 51.4,46.7 51.2,46.7 50.9,46.7 50.6,46.7 50.3,46.7 50,46.7 49.8,46.7 49.6,46.7 49.4,46.7 
			49.2,46.6 49,46.6 48.8,46.6 48.7,46.6 48.6,46.5 48.4,46.5 48.3,46.5 48.2,46.4 48.1,46.4 47.9,46.3 48.3,44.7 48.3,44.7 
			48.4,44.7 48.5,44.7 48.7,44.8 48.8,44.8 48.9,44.8 49.1,44.9 49.3,44.9 49.5,44.9 49.7,45 49.9,45 50.1,45 50.3,45 50.5,45 
			50.8,45 51,45 51.2,45 51.4,44.9 51.5,44.8 51.6,44.7 51.7,44.6 51.8,44.5 51.8,44.4 51.8,44.2 51.8,44 51.8,43.8 51.6,43.7 
			51.5,43.6 51.2,43.4 51,43.3 50.7,43.2 50.4,43.1 50.1,43 49.8,42.8 49.5,42.6 49.3,42.4 49.1,42.1 48.9,41.7 48.9,41.3 
			48.9,40.8 48.9,40.5 49,40.3 49,40 49.1,39.8 49.3,39.5 49.4,39.3 49.6,39.2 49.7,39 50,38.8 50.2,38.7 50.5,38.6 50.8,38.5 
			51.1,38.5 51.5,38.4 51.9,38.4 52.4,38.4 52.6,38.4 52.9,38.4 53.1,38.4 53.3,38.4 53.5,38.4 53.7,38.4 53.9,38.4 54,38.4 
			54.1,38.5 54.2,38.5 54.3,38.5 54.4,38.5 54.5,38.5 54.6,38.5 54.6,38.6 54.7,38.6 54.3,40.3 54.3,40.3 		"/>
		<polyline class="st14" points="54.3,40.3 54.3,40.3 54.2,40.3 54.1,40.3 54,40.2 53.9,40.2 53.8,40.2 53.7,40.2 53.6,40.2 
			53.5,40.2 53.4,40.1 53.3,40.1 53.1,40.1 53,40.1 52.8,40.1 52.7,40.1 52.5,40.1 52.2,40.2 52.2,40.2 52.1,40.2 51.9,40.2 
			51.8,40.3 51.7,40.3 51.6,40.4 51.5,40.4 51.4,40.5 51.4,40.6 51.3,40.6 51.3,40.7 51.3,40.8 51.3,40.9 51.3,41 51.3,41.1 
			51.4,41.2 51.4,41.3 51.4,41.3 51.6,41.4 51.8,41.6 52,41.7 52.2,41.7 52.5,41.8 52.7,41.9 53,42 53.2,42.1 53.4,42.2 53.6,42.4 
			53.8,42.6 54,42.8 54.1,43.1 54.2,43.4 54.2,43.8 54.2,44.3 54.2,44.3 54.1,44.7 54,45 53.9,45.3 53.8,45.5 53.6,45.7 53.4,45.9 
			53.2,46.1 53,46.3 52.7,46.4 52.5,46.5 52.2,46.5 51.9,46.6 51.7,46.6 51.4,46.7 51.2,46.7 50.9,46.7 50.9,46.7 50.6,46.7 
			50.3,46.7 50,46.7 49.8,46.7 49.6,46.7 49.4,46.7 49.2,46.6 49,46.6 48.8,46.6 48.7,46.6 48.6,46.5 48.4,46.5 48.3,46.5 
			48.2,46.4 48.1,46.4 47.9,46.3 48.3,44.7 48.3,44.7 48.3,44.7 48.4,44.7 48.5,44.7 48.7,44.8 48.8,44.8 48.9,44.8 49.1,44.9 
			49.3,44.9 49.5,44.9 49.7,45 49.9,45 50.1,45 50.3,45 50.5,45 50.8,45 51,45 51,45 51.2,45 51.4,44.9 51.5,44.8 51.6,44.7 
			51.7,44.6 51.8,44.5 51.8,44.4 51.8,44.2 51.8,44.2 51.8,44 51.8,43.8 51.6,43.7 51.5,43.6 51.2,43.4 51,43.3 50.7,43.2 
			50.4,43.1 50.1,43 49.8,42.8 49.5,42.6 49.3,42.4 49.1,42.1 48.9,41.7 48.9,41.3 48.9,40.8 48.9,40.8 48.9,40.5 49,40.3 49,40 
			49.1,39.8 49.3,39.5 49.4,39.3 49.6,39.2 49.7,39 50,38.8 50.2,38.7 50.5,38.6 50.8,38.5 51.1,38.5 51.5,38.4 51.9,38.4 
			52.4,38.4 52.4,38.4 52.6,38.4 52.9,38.4 53.1,38.4 53.3,38.4 53.5,38.4 53.7,38.4 53.9,38.4 54,38.4 54.1,38.5 54.2,38.5 
			54.3,38.5 54.4,38.5 54.5,38.5 54.6,38.5 54.6,38.6 54.7,38.6 54.3,40.3 		"/>
		<polygon class="st13" points="56.1,36.7 58.2,36.7 57.9,38.5 59.2,38.5 58.9,40.2 57.6,40.2 56.8,44.4 56.8,44.6 56.9,44.7 
			56.9,44.8 57,44.9 57.2,45 57.3,45 57.5,45 57.7,45 57.8,45 58,45 58.1,45 58.2,45 58.3,44.9 58.4,44.9 58.5,44.9 58.5,44.9 
			58.2,46.3 58.2,46.3 58.1,46.4 58,46.4 58,46.4 57.9,46.5 57.9,46.5 57.8,46.5 57.7,46.5 57.7,46.5 57.6,46.6 57.5,46.6 
			57.4,46.6 57.3,46.6 57.2,46.6 57.1,46.6 56.9,46.7 56.4,46.7 56.1,46.6 55.8,46.6 55.6,46.6 55.4,46.5 55.2,46.4 55,46.4 
			54.9,46.3 54.8,46.2 54.7,46.1 54.7,45.9 54.6,45.8 54.6,45.7 54.6,45.5 54.6,45.3 54.6,45.2 54.7,45 56.1,36.7 56.1,36.7 		"/>
		<polyline class="st14" points="56.1,36.7 58.2,36.7 57.9,38.5 59.2,38.5 58.9,40.2 57.6,40.2 56.8,44.4 56.8,44.4 56.8,44.6 
			56.9,44.7 56.9,44.8 57,44.9 57.2,45 57.3,45 57.5,45 57.7,45 57.7,45 57.8,45 58,45 58.1,45 58.2,45 58.3,44.9 58.4,44.9 
			58.5,44.9 58.5,44.9 58.2,46.3 58.2,46.3 58.2,46.3 58.1,46.4 58,46.4 58,46.4 57.9,46.5 57.9,46.5 57.8,46.5 57.7,46.5 
			57.7,46.5 57.6,46.6 57.5,46.6 57.4,46.6 57.3,46.6 57.2,46.6 57.1,46.6 56.9,46.7 56.4,46.7 56.4,46.7 56.1,46.6 55.8,46.6 
			55.6,46.6 55.4,46.5 55.2,46.4 55,46.4 54.9,46.3 54.8,46.2 54.7,46.1 54.7,45.9 54.6,45.8 54.6,45.7 54.6,45.5 54.6,45.3 
			54.6,45.2 54.7,45 56.1,36.7 		"/>
		<polyline class="st14" points="60.8,43.1 60.8,43.1 60.8,43.2 60.8,43.4 60.8,43.5 60.9,43.7 60.9,43.8 61,43.9 61.1,44.1 
			61.1,44.2 61.3,44.3 61.4,44.5 61.5,44.6 61.6,44.7 61.8,44.7 61.9,44.8 62.1,44.9 62.2,44.9 62.2,44.9 62.4,44.9 62.6,44.9 
			62.8,45 63,45 63.2,45 63.4,45 63.6,45 63.8,45 64,44.9 64.2,44.9 64.4,44.9 64.6,44.8 64.8,44.7 65.1,44.6 65.3,44.5 65.5,44.4 
			65.2,46.2 65.2,46.2 65.1,46.3 64.9,46.3 64.8,46.4 64.7,46.4 64.6,46.5 64.5,46.5 64.4,46.5 64.2,46.6 64.1,46.6 63.9,46.6 
			63.8,46.6 63.6,46.6 63.4,46.6 63.2,46.6 63,46.7 62.7,46.7 62.7,46.7 62.3,46.6 62,46.6 61.6,46.6 61.2,46.5 60.8,46.3 
			60.5,46.2 60.1,46 59.8,45.8 59.5,45.5 59.3,45.2 59,44.9 58.9,44.5 58.7,44 58.6,43.5 58.6,43 58.7,42.3 58.7,42.3 58.7,42.1 
			58.7,41.8 58.8,41.5 58.9,41.2 59,40.9 59.1,40.5 59.3,40.2 59.5,39.9 59.8,39.6 60.1,39.3 60.4,39 60.8,38.8 61.2,38.6 
			61.7,38.5 62.3,38.4 62.9,38.4 62.9,38.4 63.2,38.4 63.5,38.4 63.8,38.5 64.1,38.5 64.4,38.6 64.7,38.8 65,39 65.2,39.2 
			65.4,39.4 65.6,39.7 65.8,40.1 65.9,40.5 66,40.9 66,41.5 65.9,42 65.8,42.7 65.8,43.1 60.2,43.1 60.6,41.6 63.9,41.6 63.9,41.6 
			63.9,41.5 63.9,41.3 63.9,41.1 63.9,41 63.8,40.8 63.8,40.7 63.7,40.6 63.6,40.5 63.5,40.4 63.4,40.3 63.3,40.2 63.2,40.2 
			63.1,40.1 62.9,40.1 62.8,40.1 62.7,40 62.7,40 62.5,40.1 62.4,40.1 62.3,40.1 62.1,40.2 62,40.2 61.9,40.3 61.8,40.4 61.7,40.5 
			61.6,40.6 61.5,40.7 61.4,40.8 61.3,40.9 61.3,41.1 61.2,41.2 61.2,41.4 61.1,41.5 60.8,43.1 		"/>
		<polygon class="st13" points="78.9,39 78.8,38.9 78.7,38.9 78.6,38.8 78.5,38.8 78.4,38.7 78.3,38.7 78.2,38.6 78,38.6 77.9,38.6 
			77.7,38.5 77.6,38.5 77.4,38.5 77.2,38.5 77.1,38.4 76.9,38.4 76.7,38.4 76.5,38.4 76.3,38.5 76.1,38.5 75.9,38.5 75.7,38.6 
			75.5,38.7 75.2,38.8 75,38.9 74.8,39.1 74.6,39.3 74.4,39.5 74.3,39.8 74.1,40.1 73.9,40.5 73.8,40.9 73.7,41.4 73.6,41.7 
			73.6,42 73.6,42.2 73.6,42.5 73.6,42.7 73.7,43 73.7,43.2 73.8,43.4 73.9,43.6 74.1,43.8 74.2,44 74.4,44.2 74.6,44.3 74.8,44.4 
			75.1,44.5 75.4,44.6 75.5,44.6 75.6,44.6 75.7,44.6 75.9,44.7 76.1,44.7 76.2,44.7 76.4,44.7 76.6,44.7 76.8,44.6 77,44.6 
			77.2,44.5 77.4,44.5 77.6,44.4 77.8,44.3 77.9,44.2 78.1,44 77.7,46.1 77.7,46.1 77.6,46.2 77.6,46.2 77.5,46.3 77.4,46.3 
			77.3,46.4 77.2,46.4 77.1,46.5 76.9,46.5 76.7,46.6 76.5,46.6 76.2,46.6 75.9,46.6 75.6,46.6 75.2,46.6 74.7,46.6 74.4,46.6 
			74,46.5 73.7,46.4 73.3,46.2 73,46.1 72.7,45.8 72.4,45.6 72.1,45.3 71.9,44.9 71.6,44.5 71.5,44.1 71.3,43.6 71.2,43.1 
			71.2,42.6 71.2,42 71.3,41.4 71.4,41.1 71.4,40.8 71.5,40.5 71.6,40.2 71.7,39.9 71.8,39.7 71.9,39.4 72,39.2 72.1,38.9 
			72.2,38.7 72.3,38.5 72.5,38.3 72.6,38.1 72.7,37.9 72.9,37.8 73.1,37.6 73.2,37.5 73.4,37.3 73.6,37.2 73.8,37.1 74,36.9 
			74.2,36.8 74.4,36.8 74.6,36.7 74.9,36.6 75.1,36.5 75.3,36.5 75.6,36.4 75.9,36.4 76.1,36.4 76.4,36.4 76.7,36.3 76.9,36.4 
			77.2,36.4 77.4,36.4 77.6,36.4 77.8,36.4 78,36.5 78.2,36.5 78.4,36.6 78.6,36.6 78.7,36.7 78.9,36.7 79,36.8 79.1,36.8 
			79.2,36.8 79.3,36.9 79.3,36.9 78.9,39 78.9,39 		"/>
		<polyline class="st14" points="78.9,39 78.9,39 78.8,38.9 78.7,38.9 78.6,38.8 78.5,38.8 78.4,38.7 78.3,38.7 78.2,38.6 78,38.6 
			77.9,38.6 77.7,38.5 77.6,38.5 77.4,38.5 77.2,38.5 77.1,38.4 76.9,38.4 76.7,38.4 76.7,38.4 76.5,38.4 76.3,38.5 76.1,38.5 
			75.9,38.5 75.7,38.6 75.5,38.7 75.2,38.8 75,38.9 74.8,39.1 74.6,39.3 74.4,39.5 74.3,39.8 74.1,40.1 73.9,40.5 73.8,40.9 
			73.7,41.4 73.7,41.4 73.6,41.7 73.6,42 73.6,42.2 73.6,42.5 73.6,42.7 73.7,43 73.7,43.2 73.8,43.4 73.9,43.6 74.1,43.8 74.2,44 
			74.4,44.2 74.6,44.3 74.8,44.4 75.1,44.5 75.4,44.6 75.4,44.6 75.5,44.6 75.6,44.6 75.7,44.6 75.9,44.7 76.1,44.7 76.2,44.7 
			76.4,44.7 76.6,44.7 76.8,44.6 77,44.6 77.2,44.5 77.4,44.5 77.6,44.4 77.8,44.3 77.9,44.2 78.1,44 77.7,46.1 77.7,46.1 
			77.7,46.1 77.6,46.2 77.6,46.2 77.5,46.3 77.4,46.3 77.3,46.4 77.2,46.4 77.1,46.5 76.9,46.5 76.7,46.6 76.5,46.6 76.2,46.6 
			75.9,46.6 75.6,46.6 75.2,46.6 74.7,46.6 74.7,46.6 74.4,46.6 74,46.5 73.7,46.4 73.3,46.2 73,46.1 72.7,45.8 72.4,45.6 
			72.1,45.3 71.9,44.9 71.6,44.5 71.5,44.1 71.3,43.6 71.2,43.1 71.2,42.6 71.2,42 71.3,41.4 71.3,41.4 71.4,41.1 71.4,40.8 
			71.5,40.5 71.6,40.2 71.7,39.9 71.8,39.7 71.9,39.4 72,39.2 72.1,38.9 72.2,38.7 72.3,38.5 72.5,38.3 72.6,38.1 72.7,37.9 
			72.9,37.8 73.1,37.6 73.2,37.5 73.4,37.3 73.6,37.2 73.8,37.1 74,36.9 74.2,36.8 74.4,36.8 74.6,36.7 74.9,36.6 75.1,36.5 
			75.3,36.5 75.6,36.4 75.9,36.4 76.1,36.4 76.4,36.4 76.7,36.3 76.7,36.3 76.9,36.4 77.2,36.4 77.4,36.4 77.6,36.4 77.8,36.4 
			78,36.5 78.2,36.5 78.4,36.6 78.6,36.6 78.7,36.7 78.9,36.7 79,36.8 79.1,36.8 79.2,36.8 79.3,36.9 79.3,36.9 78.9,39 		"/>
		<polygon class="st13" points="97.6,46.7 95.5,46.7 95.7,45.8 95.7,45.7 95.6,45.9 95.4,46 95.3,46.1 95.2,46.3 95,46.3 94.9,46.4 
			94.8,46.5 94.6,46.6 94.5,46.6 94.3,46.7 94.2,46.7 94,46.7 93.9,46.7 93.7,46.8 93.6,46.8 93.4,46.8 93,46.7 92.7,46.7 
			92.3,46.5 92,46.3 91.8,46.1 91.5,45.9 91.3,45.6 91.1,45.3 91,44.9 90.8,44.6 90.8,44.2 90.7,43.8 90.7,43.4 90.7,43 90.7,42.6 
			90.8,42.3 90.9,41.8 91,41.4 91.2,41 91.4,40.6 91.6,40.3 91.8,40 92.1,39.7 92.3,39.5 92.6,39.2 92.9,39.1 93.1,38.9 93.4,38.8 
			93.7,38.7 94,38.6 94.3,38.5 94.6,38.5 94.9,38.5 95.1,38.6 95.3,38.6 95.5,38.6 95.6,38.7 95.8,38.8 95.9,38.9 96.1,38.9 
			96.2,39 96.3,39.1 96.4,39.2 96.5,39.3 96.6,39.4 96.6,39.5 96.7,39.6 96.8,39.7 96.8,39.7 97.3,36.7 99.3,36.7 97.6,46.7 
			97.6,46.7 		"/>
		<polyline class="st14" points="97.6,46.7 95.5,46.7 95.7,45.8 95.7,45.7 95.7,45.7 95.6,45.9 95.4,46 95.3,46.1 95.2,46.3 
			95,46.3 94.9,46.4 94.8,46.5 94.6,46.6 94.5,46.6 94.3,46.7 94.2,46.7 94,46.7 93.9,46.7 93.7,46.8 93.6,46.8 93.4,46.8 
			93.4,46.8 93,46.7 92.7,46.7 92.3,46.5 92,46.3 91.8,46.1 91.5,45.9 91.3,45.6 91.1,45.3 91,44.9 90.8,44.6 90.8,44.2 90.7,43.8 
			90.7,43.4 90.7,43 90.7,42.6 90.8,42.3 90.8,42.3 90.9,41.8 91,41.4 91.2,41 91.4,40.6 91.6,40.3 91.8,40 92.1,39.7 92.3,39.5 
			92.6,39.2 92.9,39.1 93.1,38.9 93.4,38.8 93.7,38.7 94,38.6 94.3,38.5 94.6,38.5 94.6,38.5 94.9,38.5 95.1,38.6 95.3,38.6 
			95.5,38.6 95.6,38.7 95.8,38.8 95.9,38.9 96.1,38.9 96.2,39 96.3,39.1 96.4,39.2 96.5,39.3 96.6,39.4 96.6,39.5 96.7,39.6 
			96.8,39.7 96.8,39.7 97.3,36.7 99.3,36.7 97.6,46.7 		"/>
		<polygon class="st11" points="94.2,44.8 94.4,44.8 94.6,44.8 94.8,44.7 95,44.6 95.1,44.5 95.3,44.4 95.4,44.3 95.5,44.1 95.7,44 
			95.8,43.8 95.9,43.7 95.9,43.5 96,43.3 96.1,43.1 96.1,42.9 96.2,42.7 96.2,42.5 96.2,42.2 96.2,42 96.2,41.8 96.2,41.6 
			96.2,41.4 96.1,41.3 96.1,41.1 96,40.9 95.9,40.8 95.8,40.7 95.7,40.6 95.6,40.5 95.4,40.4 95.3,40.4 95.1,40.4 94.9,40.4 
			94.7,40.4 94.5,40.5 94.4,40.5 94.2,40.6 94.1,40.8 93.9,40.9 93.8,41 93.7,41.2 93.6,41.4 93.5,41.6 93.4,41.7 93.3,42 
			93.3,42.2 93.2,42.4 93.2,42.6 93.1,42.9 93.1,43.3 93.2,43.7 93.3,44 93.4,44.3 93.6,44.6 93.9,44.8 94.2,44.8 94.2,44.8 		"/>
		<polygon class="st13" points="47.6,45 47.3,46.7 45.4,46.7 45.4,46.3 45.5,46.1 45.5,45.8 45.5,45.7 45.4,45.9 45.3,46 45.1,46.1 
			45,46.2 44.8,46.3 44.6,46.4 44.4,46.5 44.2,46.6 44,46.6 43.8,46.7 43.5,46.7 43.3,46.8 43.1,46.8 42.9,46.8 42.7,46.8 
			42.5,46.7 42.2,46.7 42,46.6 41.7,46.5 41.6,46.4 41.4,46.3 41.2,46.1 41.1,46 41,45.8 40.9,45.7 40.8,45.5 40.8,45.3 40.7,45.2 
			40.7,45 40.7,44.8 40.7,44.6 40.7,44.5 40.7,44.2 40.7,43.9 40.8,43.6 40.9,43.4 41,43.1 41.2,42.9 41.3,42.7 41.5,42.5 
			41.7,42.3 41.9,42.2 42.1,42 42.4,41.9 42.6,41.8 42.9,41.7 43.1,41.6 43.4,41.6 43.4,41.6 43.4,41.6 43.5,41.6 43.6,41.6 
			43.7,41.6 43.8,41.6 43.9,41.5 44,41.5 44.1,41.5 44.3,41.5 44.4,41.5 44.5,41.5 44.6,41.5 44.8,41.5 44.9,41.5 44.9,41.5 
			45.1,41.5 45.3,41.5 45.5,41.5 45.6,41.5 45.8,41.5 45.9,41.5 46,41.5 46,41.5 46,41.4 46,41.3 46.1,41.1 46.1,41 46.1,40.8 
			46,40.7 45.9,40.5 45.8,40.4 45.6,40.3 45.5,40.3 45.3,40.2 45.1,40.2 44.9,40.2 44.7,40.2 44.4,40.2 44.2,40.2 43.9,40.2 
			43.7,40.2 43.4,40.3 43.2,40.3 43,40.3 42.8,40.4 42.6,40.4 42.4,40.4 42.2,40.5 42.1,40.5 42,40.6 41.9,40.6 42.4,38.8 
			42.6,38.7 42.8,38.7 42.9,38.6 43.1,38.6 43.3,38.5 43.5,38.5 43.7,38.5 43.9,38.5 44.1,38.4 44.3,38.4 44.6,38.4 44.8,38.4 
			45,38.4 45.3,38.4 45.6,38.4 45.8,38.4 46,38.5 46.3,38.5 46.5,38.5 46.7,38.6 47,38.7 47.2,38.8 47.4,38.9 47.6,39.1 47.8,39.3 
			48,39.4 48.2,39.6 48.3,39.9 48.3,40.1 48.4,40.4 48.4,40.7 48.3,41 47.6,45 47.6,45 		"/>
		<polyline class="st14" points="47.6,45 47.3,46.7 45.4,46.7 45.4,46.7 45.4,46.3 45.5,46.1 45.5,45.8 45.5,45.7 45.5,45.7 
			45.4,45.9 45.3,46 45.1,46.1 45,46.2 44.8,46.3 44.6,46.4 44.4,46.5 44.2,46.6 44,46.6 43.8,46.7 43.5,46.7 43.3,46.8 43.1,46.8 
			42.9,46.8 42.7,46.8 42.5,46.7 42.5,46.7 42.2,46.7 42,46.6 41.7,46.5 41.6,46.4 41.4,46.3 41.2,46.1 41.1,46 41,45.8 40.9,45.7 
			40.8,45.5 40.8,45.3 40.7,45.2 40.7,45 40.7,44.8 40.7,44.6 40.7,44.5 40.7,44.5 40.7,44.2 40.7,43.9 40.8,43.6 40.9,43.4 
			41,43.1 41.2,42.9 41.3,42.7 41.5,42.5 41.7,42.3 41.9,42.2 42.1,42 42.4,41.9 42.6,41.8 42.9,41.7 43.1,41.6 43.4,41.6 
			43.4,41.6 43.4,41.6 43.4,41.6 43.5,41.6 43.6,41.6 43.7,41.6 43.8,41.6 43.9,41.5 44,41.5 44.1,41.5 44.3,41.5 44.4,41.5 
			44.5,41.5 44.6,41.5 44.8,41.5 44.9,41.5 44.9,41.5 44.9,41.5 45.1,41.5 45.3,41.5 45.5,41.5 45.6,41.5 45.8,41.5 45.9,41.5 
			46,41.5 46,41.5 46,41.5 46,41.4 46,41.3 46.1,41.1 46.1,41 46.1,41 46.1,40.8 46,40.7 45.9,40.5 45.8,40.4 45.6,40.3 45.5,40.3 
			45.3,40.2 45.1,40.2 45.1,40.2 44.9,40.2 44.7,40.2 44.4,40.2 44.2,40.2 43.9,40.2 43.7,40.2 43.4,40.3 43.2,40.3 43,40.3 
			42.8,40.4 42.6,40.4 42.4,40.4 42.2,40.5 42.1,40.5 42,40.6 41.9,40.6 42.4,38.8 42.4,38.8 42.6,38.7 42.8,38.7 42.9,38.6 
			43.1,38.6 43.3,38.5 43.5,38.5 43.7,38.5 43.9,38.5 44.1,38.4 44.3,38.4 44.6,38.4 44.8,38.4 45,38.4 45.3,38.4 45.6,38.4 
			45.8,38.4 45.8,38.4 46,38.5 46.3,38.5 46.5,38.5 46.7,38.6 47,38.7 47.2,38.8 47.4,38.9 47.6,39.1 47.8,39.3 48,39.4 48.2,39.6 
			48.3,39.9 48.3,40.1 48.4,40.4 48.4,40.7 48.3,41 47.6,45 		"/>
		<polygon class="st12" points="45.8,43 45.7,42.9 45.7,42.9 45.7,42.9 45.6,42.9 45.5,42.9 45.4,42.8 45.3,42.8 45.2,42.8 
			45.1,42.9 44.9,42.9 44.8,42.9 44.7,42.9 44.6,42.9 44.5,42.9 44.4,43 44.3,43 44.2,43 44.2,43 44.1,43.1 44,43.1 43.9,43.1 
			43.8,43.2 43.7,43.2 43.6,43.3 43.5,43.4 43.4,43.5 43.3,43.5 43.2,43.6 43.2,43.7 43.1,43.8 43.1,44 43,44.1 43,44.3 43.1,44.5 
			43.1,44.7 43.2,44.8 43.4,44.9 43.5,44.9 43.6,45 43.7,45 44,45 44.2,44.9 44.4,44.9 44.5,44.9 44.7,44.8 44.8,44.7 45,44.7 
			45.1,44.6 45.2,44.5 45.3,44.4 45.3,44.3 45.4,44.2 45.4,44.2 45.5,44.1 45.5,44 45.6,43.9 45.6,43.7 45.7,43.4 45.7,43.2 
			45.8,43 45.8,43 		"/>
		<polygon class="st13" points="31.6,46.7 29.5,46.7 31.3,36.7 34.9,36.7 35.2,42.6 37.7,36.7 41.4,36.7 39.7,46.7 37.6,46.7 
			38.9,39.2 38.8,39.2 35.7,46.7 33.4,46.7 33.4,46.3 33.3,45.5 33.3,44.3 33.2,43 33.1,41.6 33,40.4 33,39.6 33,39.2 33,39.2 
			32.9,39.2 32.9,39.2 32.9,39.2 31.6,46.7 31.6,46.7 		"/>
		<polyline class="st14" points="31.6,46.7 29.5,46.7 31.3,36.7 34.9,36.7 35.2,42.6 37.7,36.7 41.4,36.7 39.7,46.7 37.6,46.7 
			38.9,39.2 38.8,39.2 35.7,46.7 33.4,46.7 33.4,46.7 33.4,46.3 33.3,45.5 33.3,44.3 33.2,43 33.1,41.6 33,40.4 33,39.6 33,39.2 
			33,39.2 33,39.2 32.9,39.2 32.9,39.2 32.9,39.2 31.6,46.7 		"/>
		<polygon class="st13" points="85.3,45 84.9,46.7 83,46.7 83.1,46.3 83.1,46.1 83.1,45.9 83.1,45.8 83,45.9 82.9,46 82.7,46.1 
			82.6,46.2 82.4,46.3 82.2,46.4 82,46.5 81.9,46.6 81.6,46.6 81.4,46.7 81.2,46.7 81,46.8 80.8,46.8 80.6,46.8 80.4,46.8 
			80.2,46.7 79.9,46.7 79.7,46.6 79.4,46.5 79.2,46.4 79.1,46.3 78.9,46.1 78.8,46 78.7,45.8 78.6,45.7 78.5,45.5 78.5,45.3 
			78.4,45.2 78.4,45 78.4,44.8 78.4,44.6 78.4,44.5 78.4,44.2 78.4,43.9 78.5,43.6 78.6,43.4 78.7,43.1 78.9,42.9 79,42.7 
			79.2,42.5 79.4,42.3 79.6,42.2 79.8,42 80.1,41.9 80.3,41.8 80.5,41.7 80.8,41.6 81,41.6 81.1,41.6 81.1,41.6 81.2,41.6 
			81.2,41.6 81.3,41.6 81.4,41.6 81.5,41.5 81.7,41.5 81.8,41.5 81.9,41.5 82.1,41.5 82.2,41.5 82.3,41.5 82.4,41.5 82.5,41.5 
			82.6,41.5 82.8,41.5 83,41.5 83.1,41.5 83.3,41.5 83.5,41.5 83.6,41.5 83.7,41.5 83.7,41.5 83.7,41.4 83.7,41.3 83.7,41.1 
			83.8,41 83.7,40.8 83.7,40.7 83.6,40.5 83.5,40.4 83.3,40.3 83.2,40.3 83,40.2 82.8,40.2 82.6,40.2 82.4,40.2 82.1,40.2 
			81.9,40.2 81.6,40.2 81.4,40.2 81.2,40.3 80.9,40.3 80.7,40.3 80.5,40.4 80.3,40.4 80.1,40.4 79.9,40.5 79.8,40.5 79.7,40.6 
			79.6,40.6 80.1,38.8 80.3,38.7 80.5,38.7 80.6,38.6 80.8,38.6 81,38.5 81.2,38.5 81.4,38.5 81.6,38.5 81.8,38.4 82,38.4 
			82.3,38.4 82.5,38.4 82.7,38.4 83,38.4 83.2,38.4 83.5,38.4 83.7,38.5 83.9,38.5 84.2,38.5 84.4,38.6 84.6,38.7 84.9,38.8 
			85.1,38.9 85.3,39.1 85.5,39.3 85.7,39.4 85.8,39.6 86,39.9 86,40.1 86.1,40.4 86.1,40.7 86,41 85.3,45 85.3,45 		"/>
		<polygon class="st13" points="84.9,46.7 85,46.7 85.3,45 85.2,45 84.9,46.6 84.9,46.6 84.9,46.7 85,46.7 85,46.7 84.9,46.7 
			84.9,46.7 		"/>
		<polygon class="st13" points="83,46.7 83,46.7 84.9,46.7 84.9,46.6 83,46.6 83.1,46.7 83,46.7 83,46.7 83,46.7 83,46.7 83,46.7 		
			"/>
		<polygon class="st13" points="83.1,45.8 83,45.7 83,45.9 83,46.1 83,46.3 83,46.7 83.1,46.7 83.1,46.3 83.1,46.1 83.1,45.9 
			83.1,45.8 83,45.7 83.1,45.8 83.1,45.8 		"/>
		<polygon class="st13" points="80.2,46.8 80.2,46.8 80.4,46.8 80.6,46.8 80.8,46.8 81,46.8 81.2,46.8 81.4,46.7 81.7,46.7 
			81.9,46.6 82.1,46.5 82.3,46.4 82.4,46.4 82.6,46.3 82.8,46.1 82.9,46 83,45.9 83.1,45.8 83,45.7 82.9,45.9 82.8,46 82.7,46.1 
			82.5,46.2 82.4,46.3 82.2,46.4 82,46.4 81.8,46.5 81.6,46.6 81.4,46.6 81.2,46.7 81,46.7 80.8,46.7 80.6,46.7 80.4,46.7 
			80.2,46.7 80.2,46.7 80.2,46.8 80.2,46.8 		"/>
		<polygon class="st13" points="78.3,44.5 78.3,44.5 78.3,44.6 78.3,44.8 78.4,45 78.4,45.2 78.4,45.3 78.5,45.5 78.6,45.7 
			78.7,45.8 78.8,46 78.9,46.1 79,46.3 79.2,46.4 79.4,46.5 79.6,46.6 79.9,46.7 80.2,46.8 80.2,46.7 79.9,46.6 79.7,46.5 
			79.5,46.4 79.3,46.3 79.1,46.2 79,46.1 78.8,45.9 78.7,45.8 78.7,45.6 78.6,45.5 78.5,45.3 78.5,45.1 78.5,45 78.4,44.8 
			78.4,44.6 78.4,44.5 78.4,44.5 78.3,44.5 78.3,44.5 		"/>
		<polygon class="st13" points="81,41.6 81,41.6 80.8,41.6 80.5,41.7 80.3,41.8 80,41.9 79.8,42 79.6,42.1 79.4,42.3 79.2,42.5 
			79,42.7 78.8,42.9 78.7,43.1 78.6,43.4 78.5,43.6 78.4,43.9 78.3,44.2 78.3,44.5 78.4,44.5 78.4,44.2 78.5,43.9 78.5,43.6 
			78.6,43.4 78.8,43.2 78.9,42.9 79.1,42.7 79.2,42.5 79.4,42.4 79.6,42.2 79.8,42.1 80.1,42 80.3,41.8 80.6,41.8 80.8,41.7 
			81,41.6 81,41.6 81,41.6 81,41.6 		"/>
		<polygon class="st13" points="82.6,41.4 82.6,41.4 82.5,41.4 82.4,41.4 82.3,41.4 82.2,41.4 82.1,41.4 81.9,41.5 81.8,41.5 
			81.7,41.5 81.5,41.5 81.4,41.5 81.3,41.5 81.2,41.5 81.2,41.5 81.1,41.6 81.1,41.6 81,41.6 81,41.6 81.1,41.6 81.1,41.6 
			81.2,41.6 81.2,41.6 81.3,41.6 81.4,41.6 81.5,41.6 81.7,41.6 81.8,41.6 81.9,41.5 82.1,41.5 82.2,41.5 82.3,41.5 82.4,41.5 
			82.5,41.5 82.6,41.5 82.6,41.5 82.6,41.4 82.6,41.4 		"/>
		<polygon class="st13" points="83.6,41.5 83.7,41.4 83.7,41.4 83.6,41.4 83.5,41.4 83.3,41.4 83.1,41.4 83,41.4 82.8,41.4 
			82.6,41.4 82.6,41.5 82.8,41.5 83,41.5 83.1,41.5 83.3,41.5 83.5,41.5 83.6,41.5 83.7,41.5 83.7,41.5 83.7,41.5 83.7,41.5 
			83.7,41.5 83.7,41.5 83.6,41.5 83.6,41.5 		"/>
		<polygon class="st13" points="83.7,41 83.7,41 83.7,41.1 83.7,41.3 83.7,41.4 83.6,41.5 83.7,41.5 83.7,41.4 83.8,41.3 83.8,41.1 
			83.8,41 83.8,41 83.7,41 83.7,41 		"/>
		<polygon class="st13" points="82.8,40.2 82.8,40.3 83,40.3 83.1,40.3 83.3,40.4 83.4,40.5 83.5,40.6 83.6,40.7 83.7,40.8 83.7,41 
			83.8,41 83.8,40.8 83.7,40.7 83.6,40.5 83.5,40.4 83.3,40.3 83.2,40.2 83,40.2 82.8,40.1 82.8,40.2 82.8,40.2 82.8,40.2 		"/>
		<polygon class="st13" points="79.6,40.6 79.6,40.7 79.7,40.6 79.8,40.6 79.9,40.5 80.1,40.5 80.3,40.4 80.5,40.4 80.7,40.4 
			80.9,40.3 81.2,40.3 81.4,40.3 81.6,40.3 81.9,40.2 82.1,40.2 82.4,40.2 82.6,40.2 82.8,40.2 82.8,40.2 82.6,40.1 82.4,40.1 
			82.1,40.1 81.9,40.1 81.6,40.2 81.4,40.2 81.2,40.2 80.9,40.2 80.7,40.3 80.5,40.3 80.3,40.3 80.1,40.4 79.9,40.4 79.8,40.5 
			79.7,40.5 79.6,40.6 79.6,40.6 79.6,40.6 79.6,40.6 		"/>
		<polygon class="st13" points="80.1,38.7 80.1,38.8 79.6,40.6 79.6,40.6 80.2,38.8 80.1,38.8 80.1,38.7 80.1,38.7 80.1,38.8 
			80.1,38.7 80.1,38.7 		"/>
		<polygon class="st13" points="83.5,38.4 83.5,38.4 83.2,38.4 83,38.4 82.7,38.4 82.5,38.4 82.3,38.4 82,38.4 81.8,38.4 81.6,38.4 
			81.4,38.4 81.2,38.5 81,38.5 80.8,38.5 80.6,38.6 80.5,38.6 80.3,38.7 80.1,38.7 80.1,38.8 80.3,38.8 80.5,38.7 80.7,38.7 
			80.8,38.6 81,38.6 81.2,38.5 81.4,38.5 81.6,38.5 81.8,38.5 82,38.5 82.3,38.5 82.5,38.5 82.7,38.5 83,38.5 83.2,38.5 83.5,38.5 
			83.5,38.5 83.5,38.4 83.5,38.4 		"/>
		<polygon class="st13" points="86.1,41 86.1,41 86.1,40.7 86.1,40.4 86.1,40.1 86,39.9 85.9,39.6 85.7,39.4 85.5,39.2 85.4,39 
			85.1,38.9 84.9,38.8 84.7,38.7 84.4,38.6 84.2,38.5 83.9,38.4 83.7,38.4 83.5,38.4 83.5,38.5 83.7,38.5 83.9,38.5 84.2,38.6 
			84.4,38.7 84.6,38.7 84.9,38.9 85.1,39 85.3,39.1 85.5,39.3 85.6,39.5 85.8,39.7 85.9,39.9 86,40.1 86,40.4 86,40.7 86,41 86,41 
			86.1,41 86.1,41 		"/>
		<polygon class="st13" points="85.3,45 85.3,45 86.1,41 86,41 85.2,45 85.2,45 85.3,45 85.3,45 		"/>
		<polygon class="st11" points="83.4,43 83.4,42.9 83.4,42.9 83.3,42.9 83.2,42.9 83.2,42.8 83.1,42.8 82.9,42.8 82.8,42.8 
			82.7,42.9 82.6,42.9 82.5,42.9 82.4,42.9 82.2,42.9 82.1,42.9 82,43 82,43 81.9,43 81.9,43 81.8,43 81.7,43.1 81.6,43.1 
			81.5,43.2 81.4,43.2 81.3,43.3 81.2,43.3 81.1,43.4 81,43.5 80.9,43.6 80.9,43.7 80.8,43.8 80.8,44 80.7,44.1 80.7,44.3 
			80.8,44.5 80.8,44.7 80.9,44.8 81,44.9 81.2,44.9 81.3,45 81.4,45 81.7,45 81.9,44.9 82.1,44.9 82.2,44.8 82.4,44.8 82.5,44.7 
			82.7,44.6 82.8,44.5 82.9,44.5 83,44.4 83.1,44.3 83.2,44.2 83.2,44.1 83.2,44 83.3,43.9 83.3,43.8 83.3,43.6 83.4,43.4 
			83.4,43.2 83.4,43 83.4,43 		"/>
		<polygon class="st13" points="99.1,45.6 99.1,45.4 99.1,45.2 99.2,45.1 99.4,44.9 99.5,44.8 99.7,44.7 99.9,44.6 100.1,44.6 
			100.3,44.6 100.5,44.7 100.7,44.8 100.9,44.9 101,45.1 101.1,45.2 101.2,45.4 101.2,45.6 101,45.6 100.9,45.5 100.9,45.3 
			100.8,45.2 100.7,45 100.6,44.9 100.5,44.8 100.3,44.8 100.1,44.8 99.9,44.8 99.8,44.8 99.6,44.9 99.5,45 99.4,45.2 99.3,45.3 
			99.3,45.5 99.3,45.6 99.1,45.6 99.1,45.6 		"/>
		<polygon class="st13" points="99.7,45.6 99.7,45.2 100.2,45.2 100.2,45.2 100.3,45.2 100.4,45.2 100.4,45.2 100.5,45.3 
			100.5,45.3 100.5,45.4 100.5,45.4 100.5,45.5 100.5,45.6 100.5,45.6 100.5,45.6 100.2,45.6 100.2,45.6 100.2,45.6 100.3,45.6 
			100.3,45.6 100.4,45.5 100.4,45.5 100.4,45.5 100.4,45.4 100.4,45.4 100.4,45.4 100.3,45.3 100.3,45.3 100.3,45.3 100.2,45.3 
			100.2,45.3 100.2,45.3 99.9,45.3 99.9,45.6 99.7,45.6 99.7,45.6 		"/>
		<polygon class="st13" points="99.1,45.6 99,45.7 99.1,45.9 99.1,46.1 99.2,46.3 99.4,46.4 99.5,46.5 99.7,46.6 99.9,46.7 
			100.1,46.7 100.3,46.7 100.5,46.6 100.7,46.5 100.9,46.4 101,46.3 101.1,46.1 101.2,45.9 101.2,45.7 101.2,45.6 101,45.6 
			101,45.7 100.9,45.8 100.9,46 100.8,46.2 100.7,46.3 100.6,46.4 100.5,46.5 100.3,46.5 100.1,46.5 99.9,46.5 99.8,46.5 99.6,46.4 
			99.5,46.3 99.4,46.2 99.3,46 99.3,45.8 99.3,45.7 99.3,45.6 99.1,45.6 99.1,45.6 		"/>
		<polygon class="st13" points="99.7,45.6 99.7,46.1 99.9,46.1 99.9,45.7 100.1,45.7 100.3,46.1 100.5,46.1 100.3,45.7 100.3,45.7 
			100.4,45.7 100.4,45.7 100.5,45.6 100.5,45.6 100.2,45.6 100.1,45.6 99.9,45.6 99.9,45.6 99.7,45.6 99.7,45.6 		"/>
		<path class="st14" d="M99,45.7L99,45.7l0-0.2l0.1-0.2l0.1-0.2l0.1-0.2l0.2-0.1l0.2-0.1l0.2-0.1l0.2,0l0,0l0.2,0l0.2,0.1l0.2,0.1
			l0.2,0.1l0.1,0.2l0.1,0.2l0.1,0.2l0,0.2l0,0l0,0.2l-0.1,0.2l-0.1,0.2l-0.1,0.2l-0.2,0.1l-0.2,0.1l-0.2,0.1l-0.2,0l0,0l-0.2,0
			l-0.2-0.1l-0.2-0.1l-0.2-0.1l-0.1-0.2l-0.1-0.2l-0.1-0.2L99,45.7 M99.9,46.1h-0.2v-0.9h0.4l0,0l0.1,0l0.1,0l0.1,0l0.1,0l0,0l0,0
			l0,0.1l0,0.1l0,0l0,0.1l0,0.1l0,0l0,0l0,0l0,0l-0.1,0h-0.1l0.2,0.4h-0.2l-0.2-0.4h-0.2V46.1 M100.1,45.6L100.1,45.6L100.1,45.6
			l0.1,0l0,0l0,0l0,0l0,0l0,0v-0.1l0,0l0,0l0,0l0,0l0,0l0,0l0,0h0h0h-0.2v0.3H100.1 M100.1,46.5L100.1,46.5l0.2,0l0.2-0.1l0.1-0.1
			l0.1-0.1l0.1-0.1l0.1-0.1l0-0.2l0-0.2l0,0l0-0.2l0-0.2l-0.1-0.2l-0.1-0.1l-0.1-0.1l-0.1-0.1l-0.2-0.1l-0.2,0l0,0l-0.2,0l-0.2,0.1
			l-0.1,0.1L99.5,45l-0.1,0.1l-0.1,0.2l0,0.2l0,0.2l0,0l0,0.2l0,0.2l0.1,0.1l0.1,0.1l0.1,0.1l0.1,0.1l0.2,0.1L100.1,46.5"/>
		<polygon class="st13" points="85.8,46.7 88,46.7 88,46.7 88.7,42.3 88.8,42.2 88.8,42 88.9,41.8 88.9,41.7 89,41.5 89.1,41.3 
			89.2,41.2 89.3,41 89.4,40.9 89.6,40.8 89.8,40.7 90,40.6 90.2,40.5 90.4,40.5 90.7,40.4 91,40.4 91.1,40.4 91.1,40.4 91.2,40.4 
			91.2,40.4 91.5,38.4 91.3,38.5 91.1,38.5 90.9,38.5 90.7,38.6 90.6,38.6 90.4,38.7 90.2,38.8 90.1,38.9 90,39 89.8,39.1 
			89.7,39.2 89.6,39.3 89.5,39.5 89.4,39.6 89.3,39.7 89.1,39.9 89.4,38.5 87.2,38.5 85.8,46.7 85.8,46.7 85.8,46.7 		"/>
		<polyline class="st14" points="85.8,46.7 88,46.7 88,46.7 88.7,42.3 88.7,42.3 88.8,42.2 88.8,42 88.9,41.8 88.9,41.7 89,41.5 
			89.1,41.3 89.2,41.2 89.3,41 89.4,40.9 89.6,40.8 89.8,40.7 90,40.6 90.2,40.5 90.4,40.5 90.7,40.4 91,40.4 91,40.4 91.1,40.4 
			91.1,40.4 91.2,40.4 91.2,40.4 91.5,38.4 91.5,38.4 91.3,38.5 91.1,38.5 90.9,38.5 90.7,38.6 90.6,38.6 90.4,38.7 90.2,38.8 
			90.1,38.9 90,39 89.8,39.1 89.7,39.2 89.6,39.3 89.5,39.5 89.4,39.6 89.3,39.7 89.1,39.9 89.4,38.5 87.2,38.5 85.8,46.7 
			85.8,46.7 		"/>
		<polygon class="st13" points="65.7,46.7 67.9,46.7 67.9,46.7 68.6,42.3 68.7,42.2 68.7,42 68.7,41.8 68.8,41.7 68.8,41.5 
			68.9,41.4 69,41.3 69.1,41.1 69.2,41 69.4,40.9 69.5,40.8 69.7,40.7 69.9,40.7 70.2,40.6 70.4,40.6 70.7,40.5 70.8,40.5 
			70.8,40.5 70.8,40.6 70.9,40.6 70.9,40.6 70.9,40.6 71,40.6 71,40.6 71,40.5 71,40.5 71,40.3 71.1,40.2 71.1,40 71.2,39.7 
			71.2,39.5 71.3,39.3 71.4,39.2 71.4,39 71.5,38.9 71.6,38.8 71.7,38.6 71.7,38.6 71.7,38.5 71.8,38.5 71.8,38.5 71.7,38.5 
			71.7,38.5 71.6,38.5 71.6,38.5 71.5,38.4 71.5,38.4 71.4,38.4 71.2,38.5 71,38.5 70.8,38.5 70.6,38.6 70.4,38.6 70.3,38.7 
			70.1,38.8 70,38.9 69.8,39 69.7,39.1 69.6,39.2 69.5,39.3 69.4,39.4 69.3,39.6 69.2,39.7 69,39.9 69.3,38.5 67.1,38.5 65.7,46.7 
			65.7,46.7 65.7,46.7 		"/>
		<polyline class="st14" points="65.7,46.7 67.9,46.7 67.9,46.7 68.6,42.3 68.6,42.3 68.7,42.2 68.7,42 68.7,41.8 68.8,41.7 
			68.8,41.5 68.9,41.4 69,41.3 69.1,41.1 69.2,41 69.4,40.9 69.5,40.8 69.7,40.7 69.9,40.7 70.2,40.6 70.4,40.6 70.7,40.5 
			70.7,40.5 70.8,40.5 70.8,40.5 70.8,40.6 70.9,40.6 70.9,40.6 70.9,40.6 71,40.6 71,40.6 71,40.6 71,40.5 71,40.5 71,40.3 
			71.1,40.2 71.1,40 71.2,39.7 71.2,39.5 71.3,39.3 71.3,39.3 71.4,39.2 71.4,39 71.5,38.9 71.6,38.8 71.7,38.6 71.7,38.6 
			71.7,38.5 71.8,38.5 71.8,38.5 71.8,38.5 71.7,38.5 71.7,38.5 71.6,38.5 71.6,38.5 71.5,38.4 71.5,38.4 71.4,38.4 71.4,38.4 
			71.2,38.5 71,38.5 70.8,38.5 70.6,38.6 70.4,38.6 70.3,38.7 70.1,38.8 70,38.9 69.8,39 69.7,39.1 69.6,39.2 69.5,39.3 69.4,39.4 
			69.3,39.6 69.2,39.7 69,39.9 69.3,38.5 67.1,38.5 65.7,46.7 65.7,46.7 		"/>
		<polygon class="st11" points="99.1,54.6 99.1,54.6 99.1,54.4 99.2,54.2 99.4,54.1 99.5,54 99.7,53.9 99.9,53.8 100.1,53.8 
			100.3,53.8 100.5,53.9 100.7,54 100.9,54.1 101,54.2 101.1,54.4 101.2,54.6 101.2,54.6 100.9,54.6 100.9,54.5 100.8,54.3 
			100.7,54.2 100.6,54.1 100.5,54 100.3,54 100.1,53.9 99.9,54 99.8,54 99.6,54.1 99.5,54.2 99.4,54.3 99.3,54.5 99.3,54.6 
			99.1,54.6 99.1,54.6 		"/>
		<polygon class="st11" points="99.7,54.6 99.7,54.4 100.2,54.4 100.2,54.4 100.3,54.4 100.4,54.4 100.4,54.4 100.5,54.5 
			100.5,54.5 100.5,54.6 100.5,54.6 100.4,54.6 100.4,54.6 100.4,54.6 100.4,54.5 100.3,54.5 100.3,54.5 100.3,54.5 100.2,54.5 
			100.2,54.5 100.2,54.5 99.9,54.5 99.9,54.6 99.7,54.6 99.7,54.6 		"/>
		<polygon class="st11" points="99,54.8 99.1,54.6 99.3,54.6 99.3,54.6 99.3,54.8 99,54.8 99,54.8 		"/>
		<polygon class="st11" points="99.7,54.8 99.7,54.6 99.9,54.6 99.9,54.8 100.1,54.8 100.2,54.8 100.2,54.8 100.3,54.8 100.3,54.7 
			100.4,54.7 100.4,54.7 100.4,54.7 100.4,54.6 100.5,54.6 100.5,54.6 100.5,54.7 100.5,54.7 100.5,54.8 100.5,54.8 99.7,54.8 
			99.7,54.8 		"/>
		<polygon class="st11" points="101,54.8 100.9,54.6 100.9,54.6 101.2,54.6 101.2,54.8 101,54.8 101,54.8 		"/>
		<polygon class="st11" points="99,54.8 99,54.8 99.1,55 99.1,55.3 99.2,55.4 99.4,55.6 99.5,55.7 99.7,55.8 99.9,55.9 100.1,55.9 
			100.3,55.9 100.5,55.8 100.7,55.7 100.9,55.6 101,55.4 101.1,55.3 101.2,55 101.2,54.8 101.2,54.8 101,54.8 101,54.8 100.9,55 
			100.9,55.2 100.8,55.3 100.7,55.4 100.6,55.6 100.5,55.6 100.3,55.7 100.1,55.7 99.9,55.7 99.8,55.6 99.6,55.6 99.5,55.4 
			99.4,55.3 99.3,55.2 99.3,55 99.3,54.8 99.3,54.8 99,54.8 99,54.8 		"/>
		<polygon class="st11" points="99.7,54.8 99.7,55.2 99.9,55.2 99.9,54.9 100.1,54.9 100.3,55.2 100.5,55.2 100.3,54.9 100.3,54.9 
			100.4,54.9 100.4,54.8 100.5,54.8 100.5,54.8 99.7,54.8 99.7,54.8 		"/>
		<path class="st13" d="M66,40.9l-0.1-0.5l-0.1-0.4l-0.2-0.3l-0.2-0.3l-0.2-0.3L65,39l-0.3-0.2l-0.3-0.1l-0.3-0.1l-0.3-0.1l-0.3-0.1
			l-0.3,0l-0.3,0l-0.6,0l-0.5,0.1l-0.5,0.1l-0.4,0.2L60.4,39l-0.3,0.3l-0.3,0.3l-0.2,0.3l-0.2,0.3l-0.2,0.3L59,40.9l-0.1,0.3
			l-0.1,0.3l-0.1,0.3l0,0.3l0,0.2l0,0.6l0,0.6l0.1,0.5l0.1,0.4l0.2,0.4l0.2,0.3l0.3,0.3l0.3,0.3l0.3,0.2l0.3,0.2l0.4,0.1l0.4,0.1
			l0.4,0.1l0.4,0.1l0.4,0l0.4,0H63l0.2,0h0.2l0.2,0l0.2,0l0.2,0l0.2,0l0.1,0l0.1,0l0.1,0l0.1,0l0.1,0l0.1,0l0.1,0l0.1-0.1l0.1-0.1
			l0.3-1.9l-0.2,0.1l-0.2,0.1l-0.2,0.1l-0.2,0.1l-0.2,0.1l-0.2,0l-0.2,0l-0.2,0l-0.2,0l-0.2,0h-0.2L63,45l-0.2,0l-0.2,0l-0.2,0
			l-0.2,0l-0.2,0l-0.2-0.1l-0.2-0.1l-0.1-0.1l-0.1-0.1l-0.1-0.1l-0.1-0.1l-0.1-0.1l-0.1-0.1L61,43.9l-0.1-0.1l-0.1-0.1l0-0.1l0-0.1
			l0-0.1l0-0.1h4.9l0-0.5l0.1-0.6l0.1-0.6L66,40.9z M63.9,41.6h-2.8l0,0l0,0l0-0.1l0-0.2l0-0.2l0.1-0.2l0.1-0.1l0.1-0.1l0.1-0.1
			l0.1-0.1l0.1-0.1l0.1-0.1l0.1-0.1l0.1-0.1l0.1-0.1l0.1,0l0.1,0l0.1,0l0.1,0l0.1,0l0.1,0l0.1,0l0.1,0l0.1,0.1l0.1,0.1l0.1,0.1
			l0.1,0.1l0.1,0.1l0.1,0.1l0.1,0.1l0.1,0.1l0,0.2l0,0.2l0,0.2L63.9,41.6z"/>
	</g>
</g>
</svg>
